<?xml version="1.0" standalone="no"?>
<!DOCTYPE svg PUBLIC "-//W3C//DTD SVG 20010904//EN"
 "http://www.w3.org/TR/2001/REC-SVG-20010904/DTD/svg10.dtd">
<svg version="1.0" xmlns="http://www.w3.org/2000/svg"
 width="2448.000000pt" height="2448.000000pt" viewBox="0 0 2448.000000 2448.000000"
 preserveAspectRatio="xMidYMid meet">

<g transform="translate(0.000000,2448.000000) scale(0.100000,-0.100000)"
fill="#000000" stroke="none">
<path d="M11785 24060 c-1361 -53 -2702 -338 -3950 -840 -1153 -463 -2223
-1105 -3180 -1905 -294 -246 -461 -400 -776 -714 -518 -519 -895 -964 -1311
-1551 -91 -129 -315 -465 -372 -560 -15 -25 -48 -79 -73 -120 -556 -910 -1011
-1966 -1288 -2985 -315 -1158 -454 -2331 -416 -3499 19 -575 64 -1051 151
-1576 182 -1092 482 -2063 955 -3085 113 -246 355 -707 490 -935 228 -385 381
-618 700 -1064 75 -105 350 -453 477 -604 428 -506 945 -1022 1463 -1457 132
-111 480 -386 572 -450 23 -17 109 -78 192 -137 453 -325 994 -649 1526 -916
132 -66 267 -132 300 -147 203 -92 277 -124 420 -185 1226 -518 2553 -822
3930 -901 272 -16 1021 -16 1290 0 1911 111 3697 647 5325 1599 47 27 119 70
160 95 41 25 95 58 120 73 112 67 462 302 625 419 339 243 698 530 1030 826
185 164 718 696 881 879 1006 1129 1743 2335 2272 3717 386 1008 635 2108 731
3228 47 549 50 1306 6 1872 -78 1014 -282 2004 -605 2940 -150 436 -233 643
-467 1163 -91 201 -375 744 -498 950 -449 753 -866 1325 -1427 1957 -169 190
-700 721 -888 887 -495 439 -827 696 -1340 1039 -241 161 -366 240 -615 389
-216 129 -724 395 -960 503 -1030 471 -1962 760 -3035 940 -295 49 -331 54
-645 90 -274 30 -410 42 -645 55 -267 14 -869 20 -1125 10z m-3386 -5222 c410
-33 793 -259 1118 -659 73 -90 224 -312 260 -384 14 -27 34 -62 44 -76 l19
-27 192 64 c106 36 236 76 288 90 52 14 122 34 155 44 229 69 812 173 1150
205 230 22 797 31 1040 16 615 -38 1247 -163 1815 -360 96 -33 178 -57 181
-53 4 4 33 52 64 107 100 174 195 308 314 444 501 571 1095 732 1756 476 114
-44 797 -385 1450 -725 72 -37 168 -87 215 -110 223 -113 939 -497 1100 -590
36 -21 146 -84 245 -140 954 -546 1614 -1035 1881 -1397 83 -112 143 -243 156
-339 41 -306 -146 -1266 -494 -2529 -33 -121 -75 -276 -93 -345 -18 -69 -56
-210 -85 -315 -229 -841 -302 -1157 -302 -1315 -1 -143 48 -279 248 -684 243
-491 318 -712 293 -864 -11 -69 -38 -105 -104 -137 -121 -57 -302 -54 -760 10
-688 97 -1309 279 -1860 544 -508 245 -894 549 -1147 903 -44 60 -58 89 -58
114 0 22 -24 84 -64 167 -174 361 -280 637 -351 917 -54 213 -57 245 -60 675
-3 339 -20 763 -40 975 -3 30 -21 228 -40 440 -19 213 -43 456 -54 540 -11 85
-29 234 -41 330 -73 599 -194 1255 -320 1730 -260 981 -631 1443 -1082 1349
-152 -32 -376 -201 -397 -301 -19 -86 43 -168 126 -168 56 0 74 10 148 80 86
81 142 111 220 118 58 4 72 1 129 -27 111 -54 211 -178 325 -401 275 -538 504
-1629 656 -3135 12 -117 38 -441 60 -750 3 -38 10 -137 16 -220 6 -82 13 -334
14 -560 4 -461 9 -516 76 -772 74 -286 204 -622 364 -943 31 -63 64 -123 72
-132 14 -16 14 -23 0 -75 -42 -157 -130 -506 -143 -568 -115 -538 -148 -798
-159 -1230 -7 -292 -12 -386 -31 -580 -55 -551 -208 -1104 -428 -1544 -311
-623 -734 -1002 -1210 -1082 -121 -20 -300 -6 -447 35 -214 59 -455 170 -684
316 -105 66 -145 94 -288 198 -88 65 -88 65 -69 86 57 62 58 121 6 209 -59 98
-258 400 -357 542 -241 344 -404 544 -629 768 -116 115 -175 181 -187 210 -56
131 -139 496 -196 862 -20 127 -25 198 -23 280 3 123 -6 149 -63 184 -29 18
-29 18 120 25 502 22 1016 145 1351 322 230 122 420 290 496 439 55 106 68
165 62 284 -4 75 -11 110 -33 160 -52 125 -135 230 -255 326 -317 253 -800
419 -1420 486 -149 17 -659 17 -815 0 -346 -36 -686 -113 -939 -213 -402 -159
-681 -394 -757 -639 -25 -81 -26 -216 0 -297 61 -199 256 -395 541 -546 335
-177 843 -298 1348 -322 l152 -7 -29 -18 c-57 -35 -66 -60 -63 -184 4 -170
-75 -645 -159 -949 -59 -219 -56 -214 -247 -403 -149 -149 -289 -308 -404
-459 -109 -145 -144 -193 -249 -344 -101 -145 -283 -424 -349 -533 -32 -54
-31 -116 4 -161 14 -19 26 -37 26 -40 0 -9 -152 -122 -276 -204 -411 -272
-743 -407 -1035 -419 -141 -6 -232 8 -382 58 -381 127 -760 518 -1022 1054
-171 350 -295 753 -369 1195 -48 280 -66 474 -72 760 -14 650 -63 993 -248
1740 l-66 263 71 139 c156 308 283 636 364 938 70 265 78 329 78 685 0 1144
207 2923 458 3929 168 677 389 1122 613 1236 60 30 71 32 130 28 79 -7 135
-37 221 -118 74 -70 92 -80 148 -80 84 0 145 82 126 169 -22 100 -245 268
-397 300 -456 95 -828 -375 -1091 -1379 -50 -194 -114 -479 -147 -658 -14 -75
-31 -168 -39 -207 -26 -132 -105 -670 -140 -960 -54 -446 -64 -539 -95 -915
-6 -69 -12 -143 -15 -165 -26 -229 -57 -941 -53 -1250 3 -241 -1 -280 -58
-505 -69 -276 -170 -541 -350 -918 -35 -74 -64 -141 -64 -149 0 -18 -29 -67
-84 -143 -461 -629 -1374 -1110 -2564 -1350 -382 -78 -860 -128 -1030 -109
-221 24 -291 107 -262 309 21 152 98 346 287 725 257 515 279 599 233 871 -19
108 -162 689 -259 1054 -57 213 -137 514 -183 685 -262 989 -434 1789 -478
2224 -15 158 -13 338 6 402 73 245 326 526 794 880 547 415 1386 912 2535
1504 105 54 253 130 330 170 487 252 1316 659 1410 693 171 62 327 94 535 109
8 0 66 -4 129 -9z m3861 -10645 c24 -111 98 -319 134 -380 25 -42 64 -85 124
-137 211 -181 499 -537 811 -1003 88 -133 111 -173 98 -173 -2 0 -64 -23 -138
-51 -550 -208 -1190 -244 -1780 -98 -127 31 -256 73 -445 146 -8 3 -14 10 -14
15 0 16 261 397 388 567 204 273 366 458 518 591 87 76 107 100 142 167 37 72
111 290 127 376 4 20 11 37 15 37 4 0 13 -26 20 -57z"/>
<path d="M9375 13347 c-298 -99 -448 -568 -313 -976 54 -162 147 -279 268
-339 47 -23 68 -27 140 -27 75 0 92 4 143 30 147 75 256 251 297 475 16 88 13
275 -6 367 -44 213 -152 381 -291 449 -63 31 -177 41 -238 21z"/>
<path d="M14918 13347 c-26 -8 -64 -25 -85 -39 -170 -114 -273 -345 -274 -615
0 -138 10 -207 47 -321 50 -153 144 -276 258 -335 54 -28 70 -32 146 -32 71 0
94 4 140 26 269 129 394 576 268 958 -36 107 -105 219 -171 277 -91 79 -221
111 -329 81z"/>
</g>
</svg>
